<svg xmlns="http://www.w3.org/2000/svg" viewBox="0 0 60 60">
    <g class="links">
        <line x1="29.47845386204116" y1="30.2993068845328" x2="5" y2="22.76864355842357" style="stroke: lightgray;"></line>
        <line x1="29.47845386204116" y1="30.2993068845328" x2="14.07820565912296" y2="51.53600876990375" style="stroke: lightgray;"></line>
        <line x1="43.86203789162526" y1="52.0669709714013" x2="5" y2="22.76864355842357" style="stroke: lightgray;"></line>
        <line x1="43.86203789162526" y1="52.0669709714013" x2="54.36201579120926" y2="23.96621520614607" style="stroke: lightgray;"></line>
        <line x1="43.86203789162526" y1="52.0669709714013" x2="14.07820565912296" y2="51.53600876990375" style="stroke: lightgray;"></line>
        <line x1="43.86203789162526" y1="52.0669709714013" x2="30.07898864117986" y2="5" style="stroke: lightgray;"></line>
        <line x1="5" y1="22.76864355842357" x2="54.36201579120926" y2="23.96621520614607" style="stroke: lightgray;"></line>
        <line x1="5" y1="22.76864355842357" x2="14.07820565912296" y2="51.53600876990375" style="stroke: lightgray;"></line>
        <line x1="5" y1="22.76864355842357" x2="30.07898864117986" y2="5" style="stroke: lightgray;"></line>
        <line x1="54.36201579120926" y1="23.96621520614607" x2="14.07820565912296" y2="51.53600876990375" style="stroke: lightgray;"></line>
        <line x1="54.36201579120926" y1="23.96621520614607" x2="30.07898864117986" y2="5" style="stroke: lightgray;"></line>
        <line x1="14.07820565912296" y1="51.53600876990375" x2="30.07898864117986" y2="5" style="stroke: lightgray;"></line>
        <line x1="29.47845386204116" y1="30.2993068845328" x2="54.36201579120926" y2="23.96621520614607" style="stroke: blue;"></line>
        <line x1="29.47845386204116" y1="30.2993068845328" x2="43.86203789162526" y2="52.0669709714013" style="stroke: blue;"></line>
        <line x1="29.47845386204116" y1="30.2993068845328" x2="30.07898864117986" y2="5" style="stroke: blue;"></line>
    </g>
    <g class="nodes">
        <circle r="5" cx="29.47845386204116" cy="30.2993068845328" style="fill: blue;"><title>Lead</title></circle>
        <circle r="5" cx="14.07820565912296" cy="51.53600876990375" style="fill: slategray;"><title>Dev_1</title></circle>
        <circle r="5" cx="30.07898864117986" cy="5" style="fill: blue;"><title>Dev_2</title></circle>
        <circle r="5" cx="43.86203789162526" cy="52.0669709714013" style="fill: blue;"><title>Dev_3</title></circle>
        <circle r="5" cx="5" cy="22.76864355842357" style="fill: slategray;"><title>Dev_4</title></circle>
        <circle r="5" cx="54.36201579120926" cy="23.96621520614607" style="fill: blue;"><title>Dev_5</title></circle>
    </g>
</svg>